<svg width="13" height="12" viewBox="0 0 13 12" fill="none" xmlns="http://www.w3.org/2000/svg">
<path d="M7.02855 0C7.26532 0 7.45725 0.19401 7.45725 0.433333V9.114L11.2641 5.25733C11.3446 5.1753 11.4542 5.12915 11.5685 5.12915C11.6828 5.12915 11.7924 5.1753 11.8729 5.25733L12.473 5.87267C12.5542 5.95403 12.5999 6.06479 12.5999 6.18033C12.5999 6.29588 12.5542 6.40663 12.473 6.488L7.21718 11.8093C7.0967 11.9313 6.93325 11.9998 6.76276 12H6.43695C6.26683 11.998 6.10404 11.9297 5.98253 11.8093L0.726662 6.488C0.645504 6.40663 0.599854 6.29588 0.599854 6.18033C0.599854 6.06479 0.645504 5.95403 0.726662 5.87267L1.33542 5.25733C1.41444 5.17581 1.5226 5.12987 1.63551 5.12987C1.74842 5.12987 1.85658 5.17581 1.9356 5.25733L5.74245 9.114V0.433333C5.74245 0.19401 5.93439 0 6.17115 0H7.02855Z" fill="black"/>
</svg>
